<svg width="25" height="25" viewBox="0 0 25 25" fill="none" xmlns="http://www.w3.org/2000/svg">
<g clip-path="url(#clip0_301_1633)">
<path d="M11.916 12.5L5.79688 16.9863V14.1875H0.0859375V10.8398H5.79688V8.01367L11.916 12.5Z" fill="#ED6C30"/>
<path d="M23.7773 1.23828C22.9492 0.867188 20.5312 0.630859 18.998 0.630859C17.4668 0.630859 15.0469 0.867188 14.2207 1.23828C13.4121 1.60156 13.0859 2.31836 13.0859 2.99414V22.0059C13.0859 22.6816 13.4121 23.3984 14.2227 23.7617C15.0488 24.1328 17.4688 24.3691 19 24.3691C20.5332 24.3691 22.9512 24.1328 23.7793 23.7617C24.5898 23.3984 24.9141 22.6816 24.9141 22.0059V2.99414C24.9121 2.31836 24.5879 1.60156 23.7773 1.23828Z" fill="#006CA2"/>
<path d="M20.0879 2.09961H17.9141C17.8008 2.09961 17.7109 2.00977 17.7109 1.89648C17.7109 1.78516 17.8008 1.69336 17.9141 1.69336H20.0879C20.1418 1.69336 20.1934 1.71476 20.2315 1.75285C20.2696 1.79095 20.291 1.84261 20.291 1.89648C20.291 1.95036 20.2696 2.00202 20.2315 2.04012C20.1934 2.07821 20.1418 2.09961 20.0879 2.09961Z" fill="white"/>
<path d="M22.8848 2.4375C23.0994 2.4375 23.2734 2.26349 23.2734 2.04883C23.2734 1.83417 23.0994 1.66016 22.8848 1.66016C22.6701 1.66016 22.4961 1.83417 22.4961 2.04883C22.4961 2.26349 22.6701 2.4375 22.8848 2.4375Z" fill="white"/>
<path d="M14.1582 4.43555H23.8398V20.4629H14.1582V4.43555Z" fill="url(#paint0_linear_301_1633)"/>
<path d="M15.9473 21.2754V21.4121L15.6484 21.1953L15.9473 20.9766V21.1133H16.1191C16.4551 21.1133 16.6719 21.2129 16.6719 21.502C16.6719 21.793 16.4551 21.8926 16.1191 21.8926H15.7324V21.7305H16.1191C16.4043 21.7305 16.5098 21.668 16.5098 21.502C16.5098 21.3379 16.4062 21.2754 16.1191 21.2754H15.9473ZM19.5684 21.8379H18.4473V21.2715L19.0078 21.0352L19.5684 21.2715V21.8379ZM18.6094 21.6758H19.4062V21.3789L19.0098 21.2109L18.6113 21.3789V21.6758H18.6094ZM22.2324 21.8379H21.2949V21.2441H22.2324V21.8379ZM21.457 21.6758H22.0703V21.4082H21.457V21.6758Z" fill="white"/>
<path d="M22.498 21.502H22.3359V21.1543H21.6426V20.9922H22.498V21.502Z" fill="white"/>
</g>
<defs>
<linearGradient id="paint0_linear_301_1633" x1="18.9996" y1="20.4627" x2="18.9996" y2="4.43594" gradientUnits="userSpaceOnUse">
<stop stop-color="white"/>
<stop offset="1" stop-color="#00A0D6"/>
</linearGradient>
<clipPath id="clip0_301_1633">
<rect width="25" height="25" fill="white"/>
</clipPath>
</defs>
</svg>
