<svg width="375" height="122" viewBox="0 0 375 122" fill="none" xmlns="http://www.w3.org/2000/svg">
<path fill-rule="evenodd" clip-rule="evenodd" d="M387.948 127.288C388.123 126.644 388.241 125.973 388.241 125.264C388.241 122.304 386.599 119.807 384.317 118.853C384.317 118.82 384.324 118.787 384.324 118.753C384.324 117.744 383.765 116.892 382.985 116.566L382.701 115.566C382.754 115.477 382.791 115.373 382.791 115.255C382.791 115.026 382.669 114.833 382.501 114.742L382.324 111.596C382.324 111.582 382.31 111.571 382.3 111.571C382.285 111.571 382.27 111.581 382.27 111.596L382.093 114.742C381.924 114.833 381.801 115.026 381.801 115.255C381.801 115.373 381.84 115.478 381.896 115.569L381.611 116.566C380.829 116.892 380.269 117.742 380.269 118.753C380.269 118.787 380.275 118.82 380.277 118.853C378.499 119.597 377.124 121.28 376.596 123.382V115.439H376.702C376.961 115.439 377.17 115.199 377.17 114.899V114.592C377.17 114.297 376.961 114.053 376.702 114.053H376.066C376.095 113.852 376.112 113.654 376.112 113.441C376.112 111.997 375.446 110.728 374.449 110.021C373.838 109.584 373.309 109.012 372.888 108.344C372.966 108.259 373.015 108.138 373.015 108.005C373.015 107.817 372.917 107.651 372.773 107.582L372.671 105.755H372.553L372.451 107.582C372.307 107.651 372.21 107.817 372.21 108.005C372.21 108.138 372.256 108.259 372.335 108.344C371.919 109.014 371.391 109.583 370.772 110.021C369.777 110.728 369.112 111.997 369.112 113.441C369.112 113.654 369.13 113.852 369.155 114.053H368.54C368.28 114.053 368.07 114.297 368.07 114.592V114.899C368.07 115.199 368.281 115.439 368.54 115.439H368.631V123.012H367.105C367.5 122.16 367.715 121.248 367.715 120.306C367.715 117.017 365.111 114.137 361.208 112.529C358.668 111.479 356.503 110.065 354.818 108.423C354.883 108.278 354.926 108.123 354.926 107.948C354.926 107.519 354.702 107.15 354.378 106.987L354.146 102.838H353.876L353.646 106.987C353.321 107.15 353.093 107.519 353.093 107.948C353.093 108.123 353.139 108.278 353.203 108.423C351.659 109.935 349.73 111.229 347.449 112.25C347.392 111.71 347.27 111.147 347.054 110.582C346.713 109.664 346.022 108.829 345.236 108.072C344.474 107.345 343.619 106.723 342.928 106.265C342.951 106.157 342.998 105.995 342.998 105.834C342.998 105.618 342.975 105.375 342.894 105.133C342.8 104.889 342.6 104.646 342.377 104.458C342.178 104.268 341.956 104.107 341.791 103.998L341.779 103.594C341.827 103.541 341.85 103.513 341.874 103.432C341.921 103.379 341.932 103.297 341.932 103.217C341.932 103.136 341.908 103.054 341.874 102.973C341.839 102.92 341.803 102.865 341.745 102.838L341.733 102.46C341.756 102.434 341.791 102.38 341.804 102.352C341.839 102.298 341.851 102.245 341.851 102.163C341.851 102.109 341.827 102.028 341.804 101.976C341.779 101.92 341.745 101.894 341.711 101.866L341.686 101.462L341.569 98.5484C341.569 98.4954 341.546 98.4673 341.524 98.4673C341.487 98.4949 341.463 98.5217 341.463 98.5484L341.347 101.462L341.335 101.866C341.288 101.894 341.265 101.92 341.242 101.976C341.206 102.028 341.193 102.109 341.193 102.163C341.193 102.245 341.193 102.298 341.229 102.352C341.242 102.38 341.276 102.434 341.312 102.46L341.288 102.838C341.242 102.865 341.194 102.92 341.172 102.973C341.124 103.054 341.1 103.136 341.1 103.217C341.1 103.297 341.124 103.379 341.159 103.432C341.183 103.514 341.218 103.541 341.265 103.594L341.242 103.998C341.077 104.107 340.866 104.268 340.655 104.458C340.444 104.646 340.245 104.889 340.14 105.133C340.057 105.375 340.034 105.617 340.046 105.834C340.046 105.995 340.082 106.157 340.116 106.265C339.413 106.723 338.57 107.345 337.808 108.072C337.416 108.451 337.044 108.848 336.727 109.265C334.46 102.865 329.156 98.2788 322.868 97.8733V97.2197C322.868 96.9834 322.7 96.7905 322.496 96.7905H322.205L321.967 89.9118C322.63 90.1722 323.35 90.2709 324.087 90.1214C325.278 89.8807 326.266 89.1048 326.903 88.0439C326.445 88.3696 325.93 88.6028 325.368 88.7159C323.023 89.1889 320.78 87.3801 320.371 84.6779C320.168 83.3395 320.446 82.0358 321.065 81.0025C319.615 82.0424 318.777 84.0247 319.091 86.0843C319.355 87.8194 320.377 89.1753 321.694 89.8075L321.461 96.791H321.164C321.068 96.791 320.977 96.8343 320.908 96.9124C320.839 96.9908 320.802 97.0978 320.802 97.207V97.8882C314.973 98.3731 310.014 102.454 307.594 108.219L307.544 99.5352H307.751C308.089 99.5352 308.368 99.213 308.368 98.8307C308.368 98.4463 308.089 98.1298 307.751 98.1298H307.544L307.496 88.37H307.751C308.049 88.37 308.299 88.0921 308.299 87.7493C308.299 87.4556 308.123 87.2074 307.887 87.139V84.2172H308.103C308.26 84.2172 308.386 84.0695 308.386 83.8906C308.386 83.7157 308.26 83.5732 308.103 83.5732H307.838C307.995 83.0493 308.181 82.0454 307.794 81.0236C307.612 80.5497 307.241 80.099 306.829 79.7032C306.421 79.32 305.971 78.9925 305.603 78.7554C305.623 78.6883 305.642 78.6089 305.642 78.5125C305.648 78.3941 305.638 78.2692 305.584 78.1469C305.539 78.0106 305.432 77.8865 305.314 77.7852C305.211 77.6892 305.094 77.6103 305.005 77.5542L304.995 77.3337C305.015 77.3113 305.039 77.2828 305.05 77.2543C305.07 77.2153 305.079 77.1767 305.079 77.1368C305.079 77.0904 305.07 77.0404 305.045 77.0067C305.035 76.9725 305.005 76.9496 304.981 76.9273L304.976 76.7357C304.985 76.7177 305.005 76.6958 305.015 76.6669C305.029 76.6454 305.035 76.6108 305.035 76.5775C305.035 76.5437 305.029 76.5043 305.011 76.4766C305 76.4534 304.981 76.431 304.957 76.4078L304.951 76.2044L304.893 74.6595C304.888 74.6372 304.879 74.6262 304.858 74.6262C304.839 74.6262 304.829 74.6424 304.829 74.6595L304.77 76.2044L304.761 76.4078C304.741 76.4315 304.722 76.4534 304.712 76.4766C304.692 76.5043 304.682 76.5437 304.682 76.5775C304.682 76.6108 304.692 76.6454 304.706 76.6669C304.717 76.6958 304.731 76.7177 304.751 76.7357L304.741 76.9273C304.712 76.9496 304.692 76.9725 304.672 77.0067C304.653 77.0404 304.643 77.0899 304.643 77.1368C304.643 77.1767 304.653 77.2153 304.672 77.2543C304.682 77.2824 304.701 77.3113 304.722 77.3337L304.717 77.5542C304.633 77.6103 304.515 77.6897 304.408 77.7852C304.289 77.8865 304.182 78.011 304.133 78.1469C304.083 78.2692 304.075 78.3941 304.079 78.5125C304.083 78.6089 304.099 78.6879 304.113 78.7554C303.75 78.9925 303.299 79.32 302.897 79.7032C302.475 80.0986 302.114 80.5497 301.927 81.0236C301.535 82.0454 301.731 83.0493 301.883 83.5732H301.565C301.417 83.5732 301.29 83.7152 301.29 83.8906C301.29 84.0695 301.417 84.2172 301.565 84.2172H301.8V87.139C301.56 87.2021 301.378 87.4503 301.378 87.7493C301.378 88.0921 301.623 88.37 301.918 88.37H302.182L302.133 98.1298H301.918C301.583 98.1298 301.31 98.4463 301.31 98.8307C301.31 99.213 301.583 99.5352 301.918 99.5352H302.123L302.096 105.207C299.994 100.106 293.722 100.653 291.867 104.347V103.188H291.953C292.179 103.188 292.351 102.988 292.351 102.749C292.351 102.469 292.179 102.269 291.953 102.269H291.729C292.145 101.232 293.132 97.8777 291.831 94.4837C291.329 93.1256 290.306 91.8881 289.143 90.7711C288.015 89.6913 286.75 88.7747 285.727 88.0952C285.761 87.9356 285.83 87.6953 285.83 87.4573C285.83 87.1368 285.796 86.7782 285.675 86.4192C285.535 86.0597 285.24 85.7003 284.91 85.4214C284.617 85.1418 284.287 84.9015 284.044 84.7419L284.027 84.1444C284.097 84.0638 284.131 84.0239 284.166 83.9037C284.236 83.8235 284.252 83.7039 284.252 83.5846C284.252 83.4641 284.217 83.3444 284.166 83.2247C284.114 83.1453 284.061 83.0647 283.975 83.0248L283.957 82.4659C283.991 82.426 284.044 82.347 284.061 82.3063C284.114 82.2261 284.131 82.1471 284.131 82.027C284.131 81.9477 284.097 81.8262 284.061 81.7478C284.026 81.6676 283.975 81.6281 283.923 81.5882L283.888 80.9898L283.714 76.6774C283.714 76.5972 283.68 76.5569 283.646 76.5569C283.593 76.5976 283.558 76.6375 283.558 76.6774L283.384 80.9898L283.368 81.5882C283.297 81.6281 283.264 81.668 283.229 81.7478C283.177 81.8262 283.159 81.9477 283.159 82.027C283.159 82.1467 283.159 82.2261 283.211 82.3063C283.229 82.347 283.281 82.426 283.333 82.4659L283.297 83.0248C283.229 83.0647 283.159 83.1453 283.125 83.2247C283.055 83.3444 283.02 83.4641 283.02 83.5846C283.02 83.7034 283.056 83.8235 283.107 83.9037C283.143 84.0234 283.195 84.0638 283.264 84.1444L283.229 84.7419C282.986 84.9015 282.674 85.1418 282.363 85.4214C282.051 85.7007 281.755 86.0597 281.599 86.4192C281.477 86.7782 281.443 87.1368 281.459 87.4573C281.459 87.6953 281.512 87.9356 281.564 88.0952C280.523 88.7751 279.274 89.6917 278.149 90.7711C276.986 91.8881 275.945 93.1256 275.441 94.4837C274.141 97.8777 275.147 101.232 275.544 102.269H275.338C275.111 102.269 274.938 102.469 274.938 102.749C274.938 102.988 275.111 103.188 275.338 103.188H275.528V104.347H273.656L273.621 83.7832H274.175C274.54 83.7832 274.834 83.4242 274.834 83.0252C274.834 82.5873 274.54 82.2673 274.175 82.2673H273.621L273.569 70.8881H273.76C274.072 70.8881 274.35 70.608 274.35 70.2485C274.35 69.8496 274.072 69.5703 273.76 69.5703H273.55L273.517 60.3471H273.76C274.038 60.3471 274.28 60.0679 274.28 59.7483C274.28 59.4686 274.105 59.2288 273.88 59.1898V56.3947H274.089C274.245 56.3947 274.35 56.2746 274.35 56.1146C274.35 55.9545 274.245 55.7954 274.089 55.7954H273.847C273.984 55.3158 274.175 54.3584 273.795 53.4005C273.62 52.9608 273.273 52.5211 272.892 52.1625C272.51 51.7636 272.076 51.4834 271.73 51.2441C271.747 51.2042 271.765 51.1244 271.765 51.0039C271.765 50.9241 271.747 50.8057 271.711 50.6843C271.659 50.5247 271.574 50.4055 271.452 50.3252C271.349 50.2459 271.243 50.1666 271.156 50.1258V49.8864C271.175 49.8864 271.192 49.847 271.192 49.8062C271.226 49.8062 271.226 49.7663 271.226 49.726C271.226 49.6865 271.226 49.6457 271.192 49.6067C271.192 49.5668 271.156 49.5269 271.123 49.5269V49.3275C271.156 49.3275 271.156 49.288 271.175 49.288C271.192 49.2473 271.192 49.2074 271.192 49.167C271.192 49.167 271.192 49.1276 271.156 49.0868C271.156 49.0478 271.14 49.0478 271.123 49.0478L271.106 48.8479L271.052 47.3705C271.052 47.3705 271.035 47.3306 271.017 47.3306C271 47.3306 270.984 47.3705 270.984 47.3705L270.932 48.8479V49.0478C270.914 49.0478 270.879 49.0478 270.879 49.0868C270.862 49.1276 270.845 49.167 270.845 49.167C270.845 49.2074 270.862 49.2473 270.879 49.288C270.879 49.288 270.896 49.3275 270.914 49.3275V49.5269C270.879 49.5269 270.862 49.5668 270.845 49.6067C270.826 49.6462 270.81 49.6869 270.81 49.726C270.81 49.7663 270.826 49.8062 270.845 49.8062C270.845 49.847 270.879 49.8864 270.896 49.8864L270.879 50.1258C270.81 50.1666 270.706 50.2459 270.602 50.3252C270.48 50.4059 270.393 50.5247 270.324 50.6843C270.289 50.8053 270.289 50.9241 270.289 51.0039C270.289 51.124 270.306 51.2042 270.324 51.2441C269.977 51.4834 269.543 51.7636 269.16 52.1625C268.763 52.5211 268.415 52.9608 268.242 53.4005C267.88 54.3584 268.07 55.3158 268.209 55.7954H267.913C267.756 55.7954 267.653 55.9545 267.653 56.1146C267.653 56.2746 267.756 56.3947 267.913 56.3947H268.122V57.1526C268.122 57.1934 268.122 57.2329 268.103 57.2728L268.122 57.3521V59.1898C267.897 59.2288 267.722 59.4686 267.722 59.7483C267.722 60.0679 267.965 60.3471 268.242 60.3471H268.486L268.451 69.5703H268.242C267.931 69.5703 267.653 69.8496 267.653 70.2485C267.653 70.608 267.931 70.8881 268.242 70.8881H268.433L268.381 82.2673H267.825C267.464 82.2673 267.167 82.5873 267.167 83.0252C267.167 83.4242 267.464 83.7832 267.825 83.7832H268.365L268.346 95.6424H267.357V90.8907H265.102V89.7334H265.19C265.398 89.7334 265.589 89.5326 265.589 89.2928C265.589 89.0144 265.398 88.8145 265.19 88.8145H264.982C265.38 87.7764 266.368 84.4215 265.085 81.0279C264.567 79.6707 263.543 78.4332 262.38 77.3157C261.252 76.2377 259.987 75.318 258.964 74.6398C259.015 74.4794 259.05 74.2409 259.084 73.9608C259.084 73.6815 259.049 73.3229 258.91 72.963C258.772 72.6035 258.477 72.244 258.148 71.9652C257.853 71.6851 257.523 71.4453 257.281 71.2862L257.263 70.6882C257.332 70.6071 257.384 70.5685 257.42 70.4475C257.454 70.3682 257.489 70.2476 257.489 70.1279C257.489 70.0074 257.454 69.8881 257.42 69.7693C257.35 69.6891 257.299 69.6102 257.211 69.5694L257.194 69.0114C257.246 68.9706 257.281 68.8908 257.315 68.8501C257.35 68.7707 257.384 68.6909 257.384 68.5708C257.384 68.4914 257.35 68.3718 257.315 68.2907C257.28 68.2122 257.211 68.1719 257.16 68.1324L257.141 67.5336L256.968 63.2216C256.968 63.1414 256.934 63.102 256.882 63.102C256.829 63.1418 256.796 63.1817 256.796 63.2216L256.621 67.5336L256.605 68.1324C256.551 68.1719 256.5 68.2126 256.465 68.2907C256.412 68.3718 256.395 68.4914 256.395 68.5708C256.395 68.6905 256.412 68.7707 256.448 68.8501C256.484 68.8908 256.518 68.9706 256.569 69.0114L256.551 69.5694C256.483 69.6102 256.412 69.6891 256.361 69.7693C256.309 69.8881 256.274 70.0074 256.274 70.1279C256.274 70.2472 256.309 70.3682 256.343 70.4475C256.378 70.5681 256.447 70.6071 256.517 70.6882L256.483 71.2862C256.24 71.4453 255.926 71.6851 255.614 71.9652C255.302 72.2445 254.99 72.6035 254.852 72.963C254.713 73.3229 254.679 73.6819 254.695 73.9608C254.713 74.2409 254.747 74.4794 254.799 74.6398C253.777 75.318 252.528 76.2377 251.383 77.3157C250.22 78.4332 249.198 79.6707 248.694 81.0279C247.395 84.4215 248.4 87.7764 248.781 88.8145H248.574C248.365 88.8145 248.191 89.0144 248.191 89.2928C248.191 89.5326 248.365 89.7334 248.574 89.7334H248.781V90.8907H246.406V95.6424H244.689V92.0485C244.897 91.8889 245.071 91.6496 245.071 91.3304C245.071 90.8907 244.793 90.4909 244.446 90.4125V85.9791H244.776C245 85.9791 245.191 85.7401 245.191 85.5017C245.191 85.2207 245 85.0225 244.776 85.0225H244.377C244.603 84.2229 244.896 82.7052 244.306 81.1489C244.028 80.4291 243.473 79.7505 242.85 79.153C242.225 78.5533 241.549 78.0732 240.977 77.7151C241.013 77.6353 241.047 77.4744 241.047 77.3547C241.047 77.1566 241.047 76.9966 240.959 76.7967C240.872 76.5976 240.734 76.3977 240.543 76.2386C240.387 76.1189 240.214 75.958 240.075 75.8791V75.5595C240.11 75.5188 240.144 75.4797 240.144 75.4398C240.179 75.3991 240.196 75.3193 240.196 75.2803C240.196 75.2001 240.179 75.1194 240.144 75.0813C240.11 75.0002 240.075 74.9611 240.04 74.9611V74.6416C240.058 74.6416 240.075 74.6017 240.093 74.5613C240.111 74.5223 240.128 74.4807 240.128 74.4026C240.128 74.3623 240.111 74.3224 240.093 74.283C240.075 74.2426 240.04 74.2019 240.005 74.1628V73.8437L239.902 71.5282C239.902 71.4887 239.884 71.4471 239.867 71.4471C239.834 71.4471 239.814 71.4887 239.814 71.5282L239.728 73.8437L239.711 74.1628C239.675 74.2023 239.659 74.2431 239.625 74.283C239.607 74.3229 239.589 74.3627 239.589 74.4026C239.589 74.4811 239.607 74.5223 239.625 74.5613C239.642 74.6017 239.659 74.6416 239.693 74.6416V74.9611C239.642 74.9611 239.607 75.0006 239.589 75.0813C239.555 75.1194 239.52 75.2001 239.52 75.2803C239.52 75.3193 239.555 75.3991 239.571 75.4398C239.589 75.4802 239.625 75.5192 239.659 75.5595L239.642 75.8791C239.52 75.9585 239.347 76.1189 239.173 76.2386C239.001 76.3977 238.844 76.5976 238.756 76.7967C238.689 76.9966 238.67 77.1965 238.689 77.3547C238.689 77.4744 238.704 77.6357 238.723 77.7151C238.185 78.0732 237.507 78.5533 236.885 79.153C236.258 79.7501 235.704 80.4291 235.426 81.1489C234.837 82.7052 235.114 84.2229 235.357 85.0225H234.871C234.647 85.0225 234.455 85.2207 234.455 85.5017C234.455 85.7401 234.647 85.9791 234.871 85.9791H235.219V90.4125C234.871 90.4909 234.595 90.8907 234.595 91.3304C234.595 91.6496 234.751 91.8885 234.941 92.0485V95.6424H234.915V95.4881C233.429 83.6162 227.055 73.7718 211.138 66.4091C202.951 62.6202 198.892 57.4714 196.905 53.6912C198.81 52.7324 200.143 50.5471 200.143 48.0005C200.143 44.966 198.252 42.4444 195.754 41.9017L195.665 39.1626C196.355 38.8168 196.839 38.0272 196.839 37.1058C196.839 36.1268 196.291 35.3027 195.53 34.9958L195.319 28.4244C197.738 29.0224 200.316 28.9202 202.827 27.9457C206.598 26.4797 209.468 23.3869 211.078 19.5743C209.735 20.8978 208.161 21.949 206.385 22.6391C198.95 25.5236 190.881 20.9219 188.371 12.3646C187.128 8.1237 187.475 3.71882 189.045 0C184.768 4.21814 182.9 11.1459 184.814 17.6708C186.402 23.0923 190.227 26.9177 194.706 28.2653L194.358 34.9559C193.541 35.2233 192.938 36.0795 192.938 37.1058C192.938 38.0386 193.433 38.8382 194.137 39.1767L193.997 41.8565C191.374 42.2787 189.353 44.8639 189.353 48.0001C189.353 50.6575 190.806 52.9183 192.845 53.8047C190.837 57.5744 186.776 62.6583 178.672 66.4087C163.842 73.2685 157.293 82.2826 155.266 93.0844V92.0481C155.456 91.8885 155.613 91.6491 155.613 91.33C155.613 90.8903 155.336 90.4905 154.988 90.412V85.9786H155.336C155.56 85.9786 155.751 85.7397 155.751 85.5012C155.751 85.2202 155.561 85.0221 155.336 85.0221H154.851C155.094 84.2225 155.37 82.7048 154.781 81.1485C154.503 80.4287 153.949 79.75 153.323 79.1525C152.7 78.5528 152.022 78.0728 151.484 77.7146C151.502 77.6348 151.519 77.474 151.519 77.3543C151.537 77.196 151.519 76.9961 151.451 76.7962C151.364 76.5972 151.206 76.3973 151.034 76.2382C150.861 76.1185 150.687 75.9576 150.566 75.8787L150.548 75.5591C150.583 75.5183 150.618 75.4793 150.636 75.4394C150.652 75.3987 150.687 75.3189 150.687 75.2798C150.687 75.1996 150.652 75.119 150.618 75.0808C150.6 74.9997 150.566 74.9607 150.514 74.9607V74.6411C150.548 74.6411 150.566 74.6012 150.583 74.5609C150.6 74.5219 150.618 74.4802 150.618 74.4022C150.618 74.3619 150.6 74.322 150.583 74.2825C150.548 74.2422 150.532 74.2014 150.497 74.1624L150.48 73.8433L150.393 71.5277C150.393 71.4883 150.374 71.4466 150.341 71.4466C150.323 71.4466 150.305 71.4883 150.305 71.5277L150.203 73.8433V74.1624C150.167 74.2019 150.132 74.2426 150.115 74.2825C150.097 74.3224 150.08 74.3623 150.08 74.4022C150.08 74.4807 150.097 74.5219 150.115 74.5609C150.132 74.6012 150.15 74.6411 150.167 74.6411V74.9607C150.132 74.9607 150.097 75.0002 150.064 75.0808C150.028 75.119 150.012 75.1996 150.012 75.2798C150.012 75.3189 150.028 75.3987 150.064 75.4394C150.064 75.4798 150.097 75.5188 150.132 75.5591V75.8787C149.993 75.958 149.82 76.1185 149.664 76.2382C149.473 76.3973 149.335 76.5972 149.248 76.7962C149.161 76.9961 149.161 77.1561 149.161 77.3543C149.161 77.474 149.195 77.6353 149.23 77.7146C148.659 78.0728 147.983 78.5528 147.358 79.1525C146.733 79.7496 146.179 80.4287 145.902 81.1485C145.311 82.7048 145.605 84.2225 145.831 85.0221H145.432C145.208 85.0221 145.016 85.2202 145.016 85.5012C145.016 85.7397 145.207 85.9786 145.432 85.9786H145.762V90.412C145.415 90.4905 145.137 90.8903 145.137 91.33C145.137 91.6491 145.311 91.888 145.519 92.0481V95.6419H143.802V90.8903H141.426V89.7329H141.634C141.843 89.7329 142.017 89.5322 142.017 89.2924C142.017 89.014 141.843 88.8141 141.634 88.8141H141.426C141.808 87.776 142.813 84.4211 141.514 81.0275C141.01 79.6703 139.988 78.4327 138.824 77.3153C137.681 76.2373 136.431 75.3175 135.41 74.6394C135.461 74.4789 135.495 74.2404 135.512 73.9603C135.529 73.681 135.495 73.3224 135.355 72.9625C135.218 72.6031 134.906 72.2436 134.594 71.9648C134.281 71.6846 133.968 71.4449 133.725 71.2857L133.691 70.6878C133.76 70.6067 133.83 70.5681 133.865 70.4471C133.899 70.3677 133.934 70.2472 133.934 70.1275C133.934 70.007 133.899 69.8877 133.848 69.7689C133.796 69.6887 133.725 69.6098 133.657 69.569L133.639 69.0109C133.691 68.9702 133.725 68.8904 133.761 68.8496C133.796 68.7703 133.814 68.6905 133.814 68.5704C133.814 68.491 133.796 68.3714 133.743 68.2903C133.709 68.2118 133.657 68.1714 133.604 68.132L133.588 67.5332L133.413 63.2212C133.413 63.1813 133.38 63.141 133.327 63.1015C133.275 63.1015 133.241 63.1414 133.241 63.2212L133.068 67.5332L133.049 68.132C132.998 68.1714 132.928 68.2122 132.894 68.2903C132.859 68.3714 132.825 68.491 132.825 68.5704C132.825 68.69 132.859 68.7703 132.894 68.8496C132.928 68.8904 132.964 68.9702 133.016 69.0109L132.998 69.569C132.911 69.6098 132.859 69.6887 132.789 69.7689C132.755 69.8877 132.72 70.007 132.72 70.1275C132.72 70.2467 132.755 70.3677 132.789 70.4471C132.825 70.5676 132.878 70.6067 132.946 70.6878L132.929 71.2857C132.686 71.4449 132.356 71.6846 132.062 71.9648C131.732 72.244 131.437 72.6031 131.299 72.9625C131.16 73.3224 131.126 73.6815 131.126 73.9603C131.16 74.2404 131.195 74.4789 131.245 74.6394C130.223 75.3175 128.958 76.2373 127.829 77.3153C126.667 78.4327 125.644 79.6703 125.124 81.0275C123.842 84.4211 124.83 87.776 125.228 88.8141H125.019C124.812 88.8141 124.621 89.014 124.621 89.2924C124.621 89.5322 124.812 89.7329 125.019 89.7329H125.108V90.8903H122.852V95.6419H121.863L121.845 83.7827H122.385C122.747 83.7827 123.043 83.4237 123.043 83.0248C123.043 82.5868 122.746 82.2668 122.385 82.2668H121.829L121.778 70.8877H121.968C122.279 70.8877 122.557 70.6076 122.557 70.2481C122.557 69.8491 122.279 69.5699 121.968 69.5699H121.76L121.724 60.3467H121.968C122.246 60.3467 122.488 60.0675 122.488 59.7479C122.488 59.4682 122.314 59.2284 122.089 59.1894V57.3517L122.107 57.2723C122.089 57.2324 122.089 57.193 122.089 57.1522V56.3942H122.297C122.454 56.3942 122.557 56.2741 122.557 56.1141C122.557 55.9541 122.454 55.795 122.297 55.795H122.001C122.14 55.3154 122.331 54.3579 121.968 53.4001C121.795 52.9604 121.447 52.5207 121.05 52.1621C120.667 51.7631 120.234 51.483 119.886 51.2437C119.904 51.2038 119.922 51.124 119.922 51.0034C119.922 50.9236 119.922 50.8053 119.886 50.6838C119.817 50.5243 119.731 50.405 119.609 50.3248C119.505 50.2455 119.401 50.1661 119.332 50.1253L119.314 49.886C119.332 49.886 119.365 49.8465 119.365 49.8057C119.384 49.8057 119.401 49.7659 119.401 49.7255C119.401 49.6861 119.384 49.6453 119.365 49.6063C119.349 49.5664 119.332 49.5265 119.297 49.5265V49.327C119.314 49.327 119.332 49.2876 119.332 49.2876C119.349 49.2468 119.365 49.2069 119.365 49.1666C119.365 49.1666 119.349 49.1271 119.332 49.0864C119.332 49.0473 119.297 49.0473 119.279 49.0473V48.8474L119.227 47.3701C119.227 47.3701 119.211 47.3302 119.194 47.3302C119.175 47.3302 119.159 47.3701 119.159 47.3701L119.106 48.8474L119.088 49.0473C119.072 49.0473 119.055 49.0473 119.055 49.0864C119.02 49.1271 119.02 49.1666 119.02 49.1666C119.02 49.2069 119.02 49.2468 119.036 49.2876C119.055 49.2876 119.055 49.327 119.088 49.327V49.5265C119.055 49.5265 119.02 49.5664 119.02 49.6063C118.985 49.6458 118.985 49.6865 118.985 49.7255C118.985 49.7659 118.985 49.8057 119.02 49.8057C119.02 49.8465 119.036 49.886 119.055 49.886V50.1253C118.968 50.1661 118.863 50.2455 118.759 50.3248C118.638 50.4055 118.552 50.5243 118.5 50.6838C118.464 50.8048 118.447 50.9236 118.447 51.0034C118.447 51.1235 118.464 51.2038 118.482 51.2437C118.135 51.483 117.702 51.7631 117.32 52.1621C116.939 52.5207 116.591 52.9604 116.417 53.4001C116.037 54.3579 116.227 55.3154 116.365 55.795H116.123C115.967 55.795 115.862 55.9541 115.862 56.1141C115.862 56.2741 115.967 56.3942 116.123 56.3942H116.332V59.1894C116.107 59.2284 115.932 59.4682 115.932 59.7479C115.932 60.0675 116.175 60.3467 116.452 60.3467H116.695L116.662 69.5699H116.452C116.14 69.5699 115.862 69.8491 115.862 70.2481C115.862 70.6076 116.14 70.8877 116.452 70.8877H116.642L116.591 82.2668H116.036C115.671 82.2668 115.377 82.5868 115.377 83.0248C115.377 83.4237 115.671 83.7827 116.036 83.7827H116.591L116.555 104.346H114.684V103.188H114.874C115.1 103.188 115.274 102.988 115.274 102.748C115.274 102.469 115.1 102.269 114.874 102.269H114.668C115.065 101.231 116.071 97.8773 114.77 94.4833C114.267 93.1252 113.226 91.8876 112.064 90.7706C110.937 89.6909 109.689 88.7742 108.648 88.0947C108.7 87.9351 108.753 87.6949 108.753 87.4569C108.769 87.1364 108.735 86.7778 108.614 86.4188C108.457 86.0593 108.162 85.6998 107.85 85.421C107.538 85.1413 107.226 84.9011 106.983 84.7415L106.948 84.144C107.018 84.0633 107.069 84.0234 107.105 83.9033C107.157 83.8231 107.192 83.7034 107.192 83.5842C107.192 83.4636 107.157 83.3439 107.087 83.2243C107.053 83.1449 106.983 83.0642 106.915 83.0244L106.88 82.4654C106.932 82.4255 106.983 82.3466 107.001 82.3058C107.053 82.2256 107.053 82.1467 107.053 82.0266C107.053 81.9472 107.036 81.8258 106.983 81.7473C106.948 81.6671 106.915 81.6277 106.844 81.5878L106.828 80.9894L106.655 76.677C106.655 76.6367 106.619 76.5967 106.566 76.5564C106.532 76.5564 106.498 76.5972 106.498 76.677L106.325 80.9894L106.289 81.5878C106.237 81.6277 106.186 81.6675 106.151 81.7473C106.116 81.8258 106.082 81.9472 106.082 82.0266C106.082 82.1463 106.098 82.2256 106.151 82.3058C106.169 82.3466 106.222 82.4255 106.255 82.4654L106.237 83.0244C106.151 83.0642 106.098 83.1449 106.047 83.2243C105.995 83.3439 105.96 83.4636 105.96 83.5842C105.96 83.703 105.976 83.8231 106.047 83.9033C106.082 84.023 106.116 84.0633 106.186 84.144L106.169 84.7415C105.925 84.9011 105.596 85.1413 105.302 85.421C104.972 85.7002 104.677 86.0593 104.537 86.4188C104.417 86.7778 104.382 87.1364 104.382 87.4569C104.382 87.6949 104.451 87.9351 104.486 88.0947C103.463 88.7746 102.198 89.6913 101.069 90.7706C99.9067 91.8876 98.8844 93.1252 98.3809 94.4833C97.0803 97.8773 98.0683 101.231 98.4834 102.269H98.2595C98.034 102.269 97.8607 102.469 97.8607 102.748C97.8607 102.988 98.034 103.188 98.2595 103.188H98.3455V104.346C96.4904 100.653 90.2184 100.106 88.1168 105.206L88.089 99.5348H88.2943C88.6283 99.5348 88.9018 99.2126 88.9018 98.8303C88.9018 98.4458 88.6283 98.1293 88.2943 98.1293H88.0791L88.0303 88.3696H88.2947C88.5891 88.3696 88.834 88.0916 88.834 87.7488C88.834 87.4498 88.6523 87.2017 88.4131 87.1386V84.2167H88.6477C88.7959 84.2167 88.9227 84.069 88.9227 83.8902C88.9227 83.7152 88.7959 83.5728 88.6477 83.5728H88.3293C88.4817 83.0489 88.6778 82.045 88.2855 81.0231C88.0989 80.5492 87.7371 80.0986 87.3151 79.7027C86.9129 79.3195 86.462 78.9921 86.0998 78.7549C86.1142 78.6878 86.1291 78.6085 86.134 78.512C86.1382 78.3937 86.1291 78.2687 86.08 78.1464C86.0308 78.0101 85.9234 77.886 85.805 77.7848C85.698 77.6888 85.5799 77.6099 85.4965 77.5537L85.4915 77.3332C85.5113 77.3109 85.5312 77.2824 85.5411 77.2539C85.5601 77.2149 85.5704 77.1763 85.5704 77.1364C85.5704 77.0899 85.5601 77.0399 85.5411 77.0062C85.5213 76.972 85.5014 76.9492 85.4721 76.9269L85.4622 76.7353C85.4813 76.7173 85.4965 76.6954 85.5068 76.6665C85.5212 76.645 85.5312 76.6103 85.5312 76.577C85.5312 76.5433 85.5212 76.5038 85.5014 76.4762C85.4915 76.453 85.4721 76.4306 85.4523 76.4074L85.4428 76.204L85.3841 74.6591C85.3841 74.642 85.3746 74.6258 85.3544 74.6258C85.3342 74.6258 85.3247 74.6367 85.3202 74.6591L85.2615 76.204L85.2562 76.4074C85.2322 76.431 85.2128 76.453 85.2021 76.4762C85.1838 76.5038 85.1781 76.5433 85.1781 76.577C85.1781 76.6103 85.1838 76.645 85.1979 76.6665C85.2074 76.6954 85.2272 76.7173 85.2364 76.7353L85.2322 76.9269C85.2074 76.9492 85.1781 76.972 85.1682 77.0062C85.1442 77.0399 85.1339 77.0895 85.1339 77.1364C85.1339 77.1763 85.1438 77.2149 85.1636 77.2539C85.1731 77.2819 85.1979 77.3109 85.2177 77.3332L85.2074 77.5537C85.1194 77.6099 85.0014 77.6892 84.8989 77.7848C84.7809 77.886 84.6735 78.0105 84.6293 78.1464C84.5752 78.2687 84.5653 78.3937 84.5706 78.512C84.5706 78.6085 84.5897 78.6874 84.6095 78.7549C84.2419 78.9921 83.7914 79.3195 83.3839 79.7027C82.9718 80.0981 82.6001 80.5492 82.4188 81.0231C82.0314 82.045 82.2181 83.0489 82.3746 83.5728H82.1099C81.953 83.5728 81.8262 83.7148 81.8262 83.8902C81.8262 84.069 81.953 84.2167 82.1099 84.2167H82.3251V87.1386C82.0897 87.2065 81.9134 87.4551 81.9134 87.7488C81.9134 88.0916 82.164 88.3696 82.4622 88.3696H82.7166L82.6686 98.1293H82.4622C82.124 98.1293 81.8444 98.4458 81.8444 98.8303C81.8444 99.2126 82.1236 99.5348 82.4622 99.5348H82.6686L82.6191 108.219C80.1991 102.453 75.2403 98.3726 69.4102 97.8878V97.2065C69.4102 97.0974 69.3728 96.9904 69.3046 96.9119C69.2357 96.8335 69.1458 96.7905 69.0487 96.7905H68.7516L68.5186 89.807C69.8356 89.1749 70.857 87.819 71.1217 86.0838C71.4352 84.0243 70.5973 82.0419 69.1474 81.0021C69.767 82.0349 70.045 83.3391 69.842 84.6775C69.4322 87.3797 67.189 89.1885 64.8444 88.7155C64.2819 88.6024 63.7681 88.3691 63.3099 88.0434C63.9467 89.1043 64.9347 89.8802 66.1252 90.1209C66.8633 90.2708 67.5824 90.1718 68.2455 89.9114L68.0074 96.7901H67.7172C67.5131 96.7901 67.3451 96.983 67.3451 97.2192V97.8729C61.0579 98.2788 55.7529 102.865 53.486 109.265C53.1696 108.848 52.7978 108.451 52.4056 108.072C51.6442 107.344 50.801 106.723 50.0975 106.264C50.1322 106.157 50.168 105.995 50.168 105.833C50.1791 105.617 50.1562 105.374 50.0739 105.132C49.9681 104.889 49.7689 104.646 49.5583 104.457C49.3473 104.268 49.1366 104.106 48.9721 103.998L48.9485 103.594C48.9953 103.54 49.0304 103.513 49.0548 103.432C49.0898 103.379 49.1134 103.296 49.1134 103.216C49.1134 103.135 49.0898 103.054 49.0422 102.972C49.0197 102.919 48.9721 102.865 48.926 102.838L48.902 102.46C48.9371 102.433 48.9721 102.379 48.9847 102.352C49.0197 102.298 49.0197 102.244 49.0197 102.163C49.0197 102.109 49.0071 102.027 48.9721 101.975C48.9485 101.92 48.926 101.894 48.878 101.866L48.867 101.461L48.7501 98.548C48.7501 98.5213 48.7261 98.4949 48.6903 98.4669C48.6674 98.4669 48.6442 98.4945 48.6442 98.548L48.5269 101.461L48.5029 101.866C48.4682 101.894 48.434 101.92 48.41 101.975C48.386 102.027 48.3627 102.109 48.3627 102.163C48.3627 102.244 48.3742 102.298 48.41 102.352C48.4218 102.379 48.4576 102.434 48.48 102.46L48.4682 102.838C48.41 102.865 48.3742 102.919 48.3395 102.972C48.3048 103.054 48.2809 103.135 48.2809 103.216C48.2809 103.297 48.2923 103.379 48.3395 103.432C48.3627 103.513 48.386 103.54 48.434 103.594L48.4218 103.998C48.2569 104.106 48.0344 104.268 47.8364 104.457C47.6128 104.646 47.4136 104.889 47.3192 105.132C47.2377 105.374 47.2145 105.617 47.2145 105.833C47.2145 105.995 47.2609 106.157 47.2849 106.264C46.5937 106.723 45.7386 107.344 44.9761 108.072C44.19 108.828 43.4992 109.664 43.1591 110.582C42.9424 111.147 42.8209 111.71 42.763 112.249C40.482 111.228 38.5526 109.935 37.0086 108.423C37.0726 108.278 37.119 108.122 37.119 107.948C37.119 107.519 36.8916 107.15 36.5672 106.987L36.3364 102.838H36.0659L35.834 106.987C35.5095 107.15 35.2856 107.519 35.2856 107.948C35.2856 108.122 35.3286 108.278 35.3949 108.423C33.7088 110.065 31.544 111.478 29.0041 112.529C25.101 114.137 22.4967 117.016 22.4967 120.305C22.4967 121.247 22.7119 122.159 23.1072 123.012H21.5796V115.439H21.6702C21.9296 115.439 22.1406 115.198 22.1406 114.898V114.592C22.1406 114.296 21.9296 114.053 21.6702 114.053H21.0551C21.0807 113.852 21.0982 113.654 21.0982 113.44C21.0982 111.997 20.4336 110.728 19.4376 110.021C18.8184 109.583 18.2905 109.014 17.8746 108.344C17.9538 108.259 18.0003 108.137 18.0003 108.005C18.0003 107.817 17.9032 107.651 17.7596 107.581L17.6567 105.755H17.5387L17.4374 107.581C17.2938 107.651 17.1955 107.817 17.1955 108.005C17.1955 108.138 17.2439 108.259 17.3223 108.344C16.9019 109.011 16.3729 109.584 15.7612 110.021C14.7641 110.727 14.0984 111.997 14.0984 113.44C14.0984 113.654 14.1151 113.852 14.1448 114.053H13.508C13.2494 114.053 13.0407 114.297 13.0407 114.592V114.898C13.0407 115.199 13.2494 115.439 13.508 115.439H13.6151V123.381C13.0872 121.28 11.7115 119.596 9.9333 118.853C9.93559 118.819 9.94206 118.786 9.94206 118.752C9.94206 117.741 9.3822 116.892 8.60068 116.565L8.31503 115.568C8.37102 115.477 8.41025 115.373 8.41025 115.255C8.41025 115.026 8.28761 114.832 8.11889 114.742L7.94103 111.596C7.94103 111.581 7.92618 111.571 7.91132 111.571C7.90142 111.571 7.88809 111.581 7.88809 111.596L7.71023 114.742C7.54265 114.832 7.42116 115.025 7.42116 115.255C7.42116 115.373 7.45848 115.476 7.51142 115.566L7.22768 116.565C6.4473 116.892 5.88858 117.744 5.88858 118.752C5.88858 118.786 5.89544 118.819 5.89544 118.853C3.61333 119.807 1.97183 122.303 1.97183 125.263C1.97183 125.972 2.08989 126.644 2.26433 127.288H0.211496V128.322H0.000499725V167H390V128.322V127.288H387.948V127.288ZM374.799 118.893C374.799 117.825 375.073 116.929 375.446 116.659C375.817 116.928 376.088 117.825 376.088 118.893V123.084H374.799V118.893ZM370.982 118.447C370.982 117.269 371.672 116.278 372.614 115.974C373.552 116.277 374.243 117.269 374.243 118.447V123.084H371.77V123.012H370.982V118.447ZM369.147 118.893C369.147 117.825 369.419 116.929 369.79 116.659C370.164 116.928 370.436 117.825 370.436 118.893V123.012H369.146V118.893H369.147ZM303.907 85.4578C303.686 84.7349 304.721 84.7704 304.838 84.2172C304.961 84.7704 305.995 84.7349 305.77 85.4578C305.74 85.5709 305.706 85.6604 305.785 85.7735C305.858 85.8866 305.848 85.9769 305.848 85.9769V87.1219H303.838V85.9769C303.838 85.9769 303.819 85.8866 303.897 85.7735C303.976 85.6604 303.946 85.5709 303.907 85.4578ZM269.925 58.8575V56.7914C269.925 55.9883 270.394 55.3141 271.036 55.1071C271.674 55.3141 272.146 55.9887 272.146 56.7914V58.9057H269.924L269.925 58.8575ZM241.931 85.3539C241.931 84.2852 242.205 83.39 242.579 83.119C242.949 83.3895 243.221 84.2852 243.221 85.3539V88.6458H241.931V85.3539ZM238.181 88.5708V85.5354C238.181 84.3575 238.871 83.3659 239.813 83.062C240.751 83.3654 241.443 84.3575 241.443 85.5354V88.6414H238.179L238.181 88.5708ZM236.279 85.3539C236.279 84.2852 236.551 83.39 236.922 83.119C237.295 83.3895 237.568 84.2852 237.568 85.3539V88.6558H236.278L236.279 85.3539ZM152.643 85.3539C152.643 84.2852 152.915 83.39 153.289 83.119C153.66 83.3895 153.933 84.2852 153.933 85.3539V88.6558H152.643V85.3539ZM148.768 85.5354C148.768 84.3575 149.46 83.3659 150.397 83.062C151.34 83.3654 152.03 84.3575 152.03 85.5354V88.5708L152.031 88.6414H148.767V85.5354H148.768ZM146.991 85.3539C146.991 84.2852 147.262 83.39 147.632 83.119C148.006 83.3895 148.281 84.2852 148.281 85.3539V88.6458H146.991V85.3539ZM118.066 56.7914C118.066 55.9883 118.537 55.3141 119.175 55.1071C119.817 55.3141 120.287 55.9887 120.287 56.7914V58.8575L120.288 58.9053H118.066V56.7914ZM84.4415 85.4578C84.2164 84.7349 85.2508 84.7704 85.3731 84.2172C85.4904 84.7704 86.5244 84.7349 86.3047 85.4578C86.2651 85.5709 86.2354 85.6604 86.3138 85.7735C86.3923 85.8866 86.3732 85.9769 86.3732 85.9769V87.1219H84.3631V85.9769C84.3631 85.9769 84.3532 85.8866 84.4267 85.7735C84.5055 85.6604 84.4716 85.5709 84.4415 85.4578ZM19.7755 118.893C19.7755 117.825 20.047 116.929 20.4214 116.659C20.7924 116.928 21.0647 117.825 21.0647 118.893V123.012H19.7755V118.893ZM15.968 118.447C15.968 117.269 16.66 116.278 17.5973 115.974C18.5403 116.277 19.2301 117.269 19.2301 118.447V123.012H18.4405V123.084H15.9676L15.968 118.447ZM14.1231 118.893C14.1231 117.825 14.3947 116.929 14.7645 116.659C15.1389 116.928 15.4127 117.825 15.4127 118.893V123.084H14.1231V118.893Z" fill="#00133F"/>
</svg>
