<svg width="137" height="10" viewBox="0 0 137 10" fill="none" xmlns="http://www.w3.org/2000/svg">
<path d="M0.807632 9.99996C6.20044 8.17235 11.7344 6.73716 17.3141 5.50906C22.8976 4.29187 28.5421 3.32538 34.2171 2.55509C45.5672 1.03269 57.0393 0.313268 68.5038 0.302368C79.9683 0.306002 91.4404 1.0218 102.79 2.5442C108.466 3.31449 114.11 4.28098 119.694 5.49817C125.273 6.72627 130.803 8.16145 136.196 9.99632C130.494 9.48401 124.85 8.93901 119.202 8.50663C113.557 8.06335 107.92 7.68184 102.287 7.39117C91.0209 6.78802 79.7623 6.50463 68.5 6.49373C57.2376 6.49736 45.9791 6.78075 34.7129 7.3839C29.0798 7.67457 23.4429 8.05608 17.7984 8.50299C12.1539 8.939 6.50555 9.48402 0.807632 9.99996Z" fill="#65D6FC"/>
</svg>
