<svg width="199" height="145" viewBox="0 0 199 145" fill="none" xmlns="http://www.w3.org/2000/svg">
<path d="M62.6123 39.5679C53.0814 46.5332 40.5262 54.6175 33.9854 64.1444C28.8901 71.5711 26.7886 80.6764 26.9335 89.5528C26.6704 89.6546 26.411 89.7563 26.1517 89.8653C22.3378 91.4931 18.9092 94.0002 16.4721 97.2339C15.1411 98.9961 14.1342 100.984 13.4973 103.069H0C0.747518 111.466 2.45232 129.909 3.76429 144.018L7.93284 110.118H21.9488C22.1548 107.269 23.0014 104.541 24.9465 102.335C27.6124 99.3049 31.2318 98.3276 35.2058 98.026C36.1135 97.9569 37.0403 97.9461 37.9594 98.0078C37.9289 96.7979 37.8717 95.5843 37.8526 94.3744C37.7306 86.9913 38.0319 80.1568 41.6017 73.4786C51.0486 55.8202 69.4086 46.3915 83.3254 32.5518C89.0996 26.811 93.9737 20.1219 96.7235 12.6116C98.2185 8.52763 99.0347 4.2947 99.5 0C97.6274 6.43842 93.9203 12.459 89.3627 17.6657C81.7083 26.4113 72.044 32.6753 62.6123 39.5679Z" fill="#65D6FC"/>
<path d="M185.503 103.069C184.866 100.984 183.859 98.9997 182.528 97.2339C180.091 94.0002 176.662 91.4931 172.848 89.8653C172.593 89.7563 172.333 89.6509 172.066 89.5528C172.211 80.6764 170.11 71.5711 165.015 64.1444C158.478 54.6175 145.919 46.5332 136.388 39.5679C126.952 32.6717 117.292 26.4113 109.637 17.6657C105.08 12.459 101.373 6.43842 99.5 0C99.9653 4.2947 100.781 8.52763 102.277 12.6116C105.026 20.1219 109.9 26.8074 115.675 32.5518C129.591 46.3878 147.951 55.8202 157.398 73.4786C160.972 80.1568 161.269 86.9913 161.147 94.3744C161.128 95.5843 161.071 96.7979 161.041 98.0078C161.956 97.9424 162.883 97.9569 163.794 98.026C167.764 98.3276 171.384 99.3049 174.053 102.335C175.999 104.541 176.845 107.269 177.051 110.118H191.067L195.236 144.018C196.548 129.909 198.252 111.466 199 103.069H185.503Z" fill="#65D6FC"/>
</svg>
